<?xml version="1.0" standalone="no"?>
<svg width="2756.25" height="1391.25" xmlns="http://www.w3.org/2000/svg" xmlns:xlink="http://www.w3.org/1999/xlink">
    <style>body { font-family: sans-serif; padding: 0px; margin: 0px; }line.bg { stroke: rgba(3, 148, 172, 0.7); stroke-width: 1; }circle.bg { fill: rgba(100, 220, 240, 0.7); }line.bg-sub { stroke: rgba(140, 240, 240, 0.5); stroke-width: 1; }rect, path, circle { fill: none; stroke-width: 2; stroke-linejoin: round; }pattern line { vector-effect: non-scaling-stroke; }.zoomed-out pattern line { vector-effect: none; }text { stroke-width: 0; font-family: sans-serif; }text tspan { vector-effect: non-scaling-stroke; }.ui-dark { background: rgb(51, 51, 51); }.ui-dark line.bg { stroke: rgba(172, 232, 242, 0.57); stroke-width: 1; }.ui-dark circle.bg { fill: rgba(100, 220, 240, 0.3); }.ui-dark line.bg-sub { stroke: rgba(140, 240, 240, 0.1); stroke-width: 1; }rect.marquee { fill: rgba(234, 255, 231, 0.3); stroke: rgb(98, 137, 95); stroke-width: 1; stroke-dasharray: 4; vector-effect: non-scaling-stroke; }rect.highlight { fill: blue; opacity: 0.5; }</style><g transform="translate(348.75, 138.75)">
    <defs>
        <pattern id="pattern_bg" viewBox="0 0 60 60" width="0.08075370121130551" height="0.06952491309385864" patternTransform="scale(0.46153846153846156 0.46153846153846156) translate(416.58333333333337 476.74999999999994)">
            <line class="bg" x1="0" y1="0" x2="60" y2="0"></line>
            <line class="bg" x1="0" y1="0" y2="60" x2="0"></line>
            <line class="bg-sub" x1="0" y1="15" x2="60" y2="15"></line>
            <line class="bg-sub" y1="0" x1="15" y2="60" x2="15"></line>
            <line class="bg-sub" x1="0" y1="30" x2="60" y2="30"></line>
            <line class="bg-sub" y1="0" x1="30" y2="60" x2="30"></line>
            <line class="bg-sub" x1="0" y1="45" x2="60" y2="45"></line>
            <line class="bg-sub" y1="0" x1="45" y2="60" x2="45"></line>
        </pattern>
    </defs><path d="M 120 300 L 240 600 L 600 780" class="u" stroke="rgb(0, 0, 0)" style="fill: rgba(0, 0, 0, 0); stroke-width: 4;"></path><path d="M 120 300 L 480 120 L 270 420 L 420 645 L 600 780" class="u" stroke="rgb(0, 0, 0)" style="fill: rgba(0, 0, 0, 0); stroke-width: 4;"></path><path d="M 360 390" class="u" stroke="rgb(0, 0, 0)" style="fill: rgba(0, 0, 0, 0); stroke-width: 4;"></path><path d="M 375 375 L 435 510 L 600 660 L 735 615" class="u" stroke="rgb(0, 0, 0)" style="fill: rgba(0, 0, 0, 0); stroke-width: 4;"></path><path d="M 375 375 L 750 270" class="u" stroke="rgb(0, 0, 0)" style="fill: rgba(0, 0, 0, 0); stroke-width: 4;"></path><path d="M 480 120 L 750 180" class="u" stroke="rgb(0, 0, 0)" style="fill: rgba(0, 0, 0, 0); stroke-width: 4;"></path><path d="M 780 375 L 555 360 L 600 570 Z" class="u" stroke="rgb(0, 0, 0)" style="fill: rgba(0, 0, 0, 0); stroke-width: 4;"></path><path d="M 750 270 L 1050 360" class="u" stroke="rgb(0, 0, 0)" style="fill: rgba(0, 0, 0, 0); stroke-width: 4;"></path><path d="M 810 375" class="u" stroke="rgb(0, 0, 0)" style="fill: rgba(0, 0, 0, 0); stroke-width: 4;"></path><path d="M 720 525 L 840 390" class="u" stroke="rgb(0, 0, 0)" style="fill: rgba(0, 0, 0, 0); stroke-width: 4;"></path><path d="M 720 525 L 780 600 L 735 615" class="u" stroke="rgb(0, 0, 0)" style="fill: rgba(0, 0, 0, 0); stroke-width: 4;"></path><path d="M 810 525 L 930 630 L 600 780" class="u" stroke="rgb(0, 0, 0)" style="fill: rgba(0, 0, 0, 0); stroke-width: 4;"></path><path d="M 840 390 L 1050 450" class="u" stroke="rgb(0, 0, 0)" style="fill: rgba(0, 0, 0, 0); stroke-width: 4;"></path><path d="M 750 180 L 1200 120 L 1050 225" class="u" stroke="rgb(0, 0, 0)" style="fill: rgba(0, 0, 0, 0); stroke-width: 4;"></path><path d="M 1050 225 L 960 285" class="u" stroke="rgb(0, 0, 0)" style="fill: rgba(0, 0, 0, 0); stroke-width: 4;"></path><path d="M 1050 360 L 1245 285 L 1125 450 L 1245 585 L 1050 450" class="u" stroke="rgb(0, 0, 0)" style="fill: rgba(0, 0, 0, 0); stroke-width: 4;"></path><path d="M 1050 720" class="u" stroke="rgb(0, 0, 0)" style="fill: rgba(0, 0, 0, 0); stroke-width: 4;"></path><path d="M 1245 450 L 1380 300 L 1320 450 L 1350 615 Z" class="u" stroke="rgb(0, 0, 0)" style="fill: rgba(0, 0, 0, 0); stroke-width: 4;" transform="translate(-45 0)"></path><path d="M 1380 300 L 1485 360 L 1395 450 L 1470 495 L 1350 615" class="u" stroke="rgb(0, 0, 0)" style="fill: rgba(0, 0, 0, 0); stroke-width: 4;" transform="translate(-45 0)"></path><path d="M 960 285 L 1440 180 L 1545 360 L 1440 720 L 1050 780" class="u" stroke="rgb(0, 0, 0)" style="fill: rgba(0, 0, 0, 0); stroke-width: 4;"></path><path d="M 1050 780 L 960 480 L 810 525" class="u" stroke="rgb(0, 0, 0)" style="fill: rgba(0, 0, 0, 0); stroke-width: 4;"></path><path d="M 60 840 L 1620 840" class="u" stroke="rgb(41, 173, 255)" style="fill: rgba(0, 0, 0, 0); stroke-width: 4;"></path><path d="M 60 840 L 60 60" class="u" stroke="rgb(41, 173, 255)" style="fill: rgba(0, 0, 0, 0); stroke-width: 4;"></path><path d="M 120 825 L 120 855" class="u" stroke="rgb(41, 173, 255)" style="fill: rgba(0, 0, 0, 0); stroke-width: 4;"></path><path d="M 240 825 L 240 855" class="u" stroke="rgb(41, 173, 255)" style="fill: rgba(0, 0, 0, 0); stroke-width: 4;"></path><path d="M 270 825 L 270 855" class="u" stroke="rgb(41, 173, 255)" style="fill: rgba(0, 0, 0, 0); stroke-width: 4;"></path><path d="M 420 825 L 420 855" class="u" stroke="rgb(41, 173, 255)" style="fill: rgba(0, 0, 0, 0); stroke-width: 4;"></path><path d="M 375 825 L 375 855" class="u" stroke="rgb(41, 173, 255)" style="fill: rgba(0, 0, 0, 0); stroke-width: 4;"></path><path d="M 435 825 L 435 855" class="u" stroke="rgb(41, 173, 255)" style="fill: rgba(0, 0, 0, 0); stroke-width: 4;"></path><path d="M 480 825 L 480 855" class="u" stroke="rgb(41, 173, 255)" style="fill: rgba(0, 0, 0, 0); stroke-width: 4;"></path><path d="M 555 360" class="u" stroke="rgb(41, 173, 255)" style="fill: rgba(0, 0, 0, 0); stroke-width: 4;"></path><path d="M 555 855 L 555 825" class="u" stroke="rgb(41, 173, 255)" style="fill: rgba(0, 0, 0, 0); stroke-width: 4;"></path><path d="M 600 825 L 600 855" class="u" stroke="rgb(41, 173, 255)" style="fill: rgba(0, 0, 0, 0); stroke-width: 4;"></path><path d="M 750 270" class="u" stroke="rgb(41, 173, 255)" style="fill: rgba(0, 0, 0, 0); stroke-width: 4;"></path><path d="M 750 855 L 750 825" class="u" stroke="rgb(41, 173, 255)" style="fill: rgba(0, 0, 0, 0); stroke-width: 4;"></path><path d="M 720 825 L 720 855" class="u" stroke="rgb(41, 173, 255)" style="fill: rgba(0, 0, 0, 0); stroke-width: 4;"></path><path d="M 780 825 L 780 855" class="u" stroke="rgb(41, 173, 255)" style="fill: rgba(0, 0, 0, 0); stroke-width: 4;"></path><path d="M 840 825 L 840 855" class="u" stroke="rgb(41, 173, 255)" style="fill: rgba(0, 0, 0, 0); stroke-width: 4;"></path><path d="M 930 825 L 930 855" class="u" stroke="rgb(41, 173, 255)" style="fill: rgba(0, 0, 0, 0); stroke-width: 4;"></path><path d="M 960 825 L 960 855" class="u" stroke="rgb(41, 173, 255)" style="fill: rgba(0, 0, 0, 0); stroke-width: 4;"></path><path d="M 1050 825 L 1050 855" class="u" stroke="rgb(41, 173, 255)" style="fill: rgba(0, 0, 0, 0); stroke-width: 4;"></path><path d="M 1125 825 L 1125 855" class="u" stroke="rgb(41, 173, 255)" style="fill: rgba(0, 0, 0, 0); stroke-width: 4;"></path><path d="M 1245 825 L 1245 855" class="u" stroke="rgb(41, 173, 255)" style="fill: rgba(0, 0, 0, 0); stroke-width: 4;"></path><path d="M 1245 285" class="u" stroke="rgb(41, 173, 255)" style="fill: rgba(0, 0, 0, 0); stroke-width: 4;"></path><path d="M 1200 450" class="u" stroke="rgb(41, 173, 255)" style="fill: rgba(0, 0, 0, 0); stroke-width: 4;"></path><path d="M 1200 855 L 1200 825" class="u" stroke="rgb(41, 173, 255)" style="fill: rgba(0, 0, 0, 0); stroke-width: 4;"></path><path d="M 1305 825 L 1305 855" class="u" stroke="rgb(41, 173, 255)" style="fill: rgba(0, 0, 0, 0); stroke-width: 4;"></path><path d="M 1425 495" class="u" stroke="rgb(41, 173, 255)" style="fill: rgba(0, 0, 0, 0); stroke-width: 4;"></path><path d="M 1425 855 L 1425 825" class="u" stroke="rgb(41, 173, 255)" style="fill: rgba(0, 0, 0, 0); stroke-width: 4;"></path><path d="M 1440 825 L 1440 855" class="u" stroke="rgb(41, 173, 255)" style="fill: rgba(0, 0, 0, 0); stroke-width: 4;"></path><path d="M 1545 360" class="u" stroke="rgb(41, 173, 255)" style="fill: rgba(0, 0, 0, 0); stroke-width: 4;"></path><path d="M 1545 855 L 1545 825" class="u" stroke="rgb(41, 173, 255)" style="fill: rgba(0, 0, 0, 0); stroke-width: 4;"></path><path d="M 1200 120" class="u" stroke="rgb(41, 173, 255)" style="fill: rgba(0, 0, 0, 0); stroke-width: 4;"></path><path d="M 45 780 L 75 780" class="u" stroke="rgb(41, 173, 255)" style="fill: rgba(0, 0, 0, 0); stroke-width: 4;"></path><path d="M 45 720 L 75 720" class="u" stroke="rgb(41, 173, 255)" style="fill: rgba(0, 0, 0, 0); stroke-width: 4;"></path><path d="M 45 660 L 75 660" class="u" stroke="rgb(41, 173, 255)" style="fill: rgba(0, 0, 0, 0); stroke-width: 4;"></path><path d="M 45 630 L 75 630" class="u" stroke="rgb(41, 173, 255)" style="fill: rgba(0, 0, 0, 0); stroke-width: 4;"></path><path d="M 45 600 L 75 600" class="u" stroke="rgb(41, 173, 255)" style="fill: rgba(0, 0, 0, 0); stroke-width: 4;"></path><path d="M 75 570 L 45 570" class="u" stroke="rgb(41, 173, 255)" style="fill: rgba(0, 0, 0, 0); stroke-width: 4;"></path><path d="M 75 525 L 45 525" class="u" stroke="rgb(41, 173, 255)" style="fill: rgba(0, 0, 0, 0); stroke-width: 4;"></path><path d="M 75 510 L 45 510" class="u" stroke="rgb(41, 173, 255)" style="fill: rgba(0, 0, 0, 0); stroke-width: 4;"></path><path d="M 45 480 L 75 480" class="u" stroke="rgb(41, 173, 255)" style="fill: rgba(0, 0, 0, 0); stroke-width: 4;"></path><path d="M 45 420 L 75 420" class="u" stroke="rgb(41, 173, 255)" style="fill: rgba(0, 0, 0, 0); stroke-width: 4;"></path><path d="M 75 375 L 45 375" class="u" stroke="rgb(41, 173, 255)" style="fill: rgba(0, 0, 0, 0); stroke-width: 4;"></path><path d="M 75 300 L 45 300" class="u" stroke="rgb(41, 173, 255)" style="fill: rgba(0, 0, 0, 0); stroke-width: 4;"></path><path d="M 45 120 L 75 120" class="u" stroke="rgb(41, 173, 255)" style="fill: rgba(0, 0, 0, 0); stroke-width: 4;"></path><path d="M 45 180 L 75 180" class="u" stroke="rgb(41, 173, 255)" style="fill: rgba(0, 0, 0, 0); stroke-width: 4;"></path><path d="M 750 270" class="u" stroke="rgb(41, 173, 255)" style="fill: rgba(0, 0, 0, 0); stroke-width: 4;"></path><path d="M 45 270 L 75 270" class="u" stroke="rgb(41, 173, 255)" style="fill: rgba(0, 0, 0, 0); stroke-width: 4;"></path><path d="M 960 285" class="u" stroke="rgb(41, 173, 255)" style="fill: rgba(0, 0, 0, 0); stroke-width: 4;"></path><path d="M 45 285 L 75 285" class="u" stroke="rgb(41, 173, 255)" style="fill: rgba(0, 0, 0, 0); stroke-width: 4;"></path><path d="M 1245 285" class="u" stroke="rgb(41, 173, 255)" style="fill: rgba(0, 0, 0, 0); stroke-width: 4;"></path><path d="M 1335 300" class="u" stroke="rgb(41, 173, 255)" style="fill: rgba(0, 0, 0, 0); stroke-width: 4;"></path><path d="M 1440 360" class="u" stroke="rgb(41, 173, 255)" style="fill: rgba(0, 0, 0, 0); stroke-width: 4;"></path><path d="M 45 360 L 75 360" class="u" stroke="rgb(41, 173, 255)" style="fill: rgba(0, 0, 0, 0); stroke-width: 4;"></path><path d="M 1350 450" class="u" stroke="rgb(41, 173, 255)" style="fill: rgba(0, 0, 0, 0); stroke-width: 4;"></path><path d="M 45 450 L 75 450" class="u" stroke="rgb(41, 173, 255)" style="fill: rgba(0, 0, 0, 0); stroke-width: 4;"></path><path d="M 1305 615" class="u" stroke="rgb(41, 173, 255)" style="fill: rgba(0, 0, 0, 0); stroke-width: 4;"></path><path d="M 45 615 L 75 615" class="u" stroke="rgb(41, 173, 255)" style="fill: rgba(0, 0, 0, 0); stroke-width: 4;"></path><path d="M 960 480" class="u" stroke="rgb(41, 173, 255)" style="fill: rgba(0, 0, 0, 0); stroke-width: 4;"></path><path d="M 810 525" class="u" stroke="rgb(41, 173, 255)" style="fill: rgba(0, 0, 0, 0); stroke-width: 4;"></path><path d="M 1440 720" class="u" stroke="rgb(41, 173, 255)" style="fill: rgba(0, 0, 0, 0); stroke-width: 4;"></path><path d="M 1545 360" class="u" stroke="rgb(41, 173, 255)" style="fill: rgba(0, 0, 0, 0); stroke-width: 4;"></path><path d="M 1440 180" class="u" stroke="rgb(41, 173, 255)" style="fill: rgba(0, 0, 0, 0); stroke-width: 4;"></path><path d="M 960 285" class="u" stroke="rgb(41, 173, 255)" style="fill: rgba(0, 0, 0, 0); stroke-width: 4;"></path><path d="M 1200 450" class="u" stroke="rgb(41, 173, 255)" style="fill: rgba(0, 0, 0, 0); stroke-width: 4;"></path><path d="M 1245 585" class="u" stroke="rgb(41, 173, 255)" style="fill: rgba(0, 0, 0, 0); stroke-width: 4;"></path><path d="M 45 585 L 75 585" class="u" stroke="rgb(41, 173, 255)" style="fill: rgba(0, 0, 0, 0); stroke-width: 4;"></path><path d="M 1050 450" class="u" stroke="rgb(41, 173, 255)" style="fill: rgba(0, 0, 0, 0); stroke-width: 4;"></path><path d="M 840 390" class="u" stroke="rgb(41, 173, 255)" style="fill: rgba(0, 0, 0, 0); stroke-width: 4;"></path><path d="M 45 390 L 75 390" class="u" stroke="rgb(41, 173, 255)" style="fill: rgba(0, 0, 0, 0); stroke-width: 4;"></path><path d="M 780 375" class="u" stroke="rgb(41, 173, 255)" style="fill: rgba(0, 0, 0, 0); stroke-width: 4;"></path><path d="M 555 360" class="u" stroke="rgb(41, 173, 255)" style="fill: rgba(0, 0, 0, 0); stroke-width: 4;"></path><path d="M 600 570" class="u" stroke="rgb(41, 173, 255)" style="fill: rgba(0, 0, 0, 0); stroke-width: 4;"></path><path d="M 435 510" class="u" stroke="rgb(41, 173, 255)" style="fill: rgba(0, 0, 0, 0); stroke-width: 4;"></path><text x="120" y="298" class="u" fill="rgb(0, 0, 0)" stroke="rgba(0, 0, 0, 0)" style="font-family: sans-serif; font-size: 18px;" transform="translate(15 18.25)"><tspan class="u" x="120" dy="0em">(0.5, 4.5)</tspan></text><text x="240" y="598" class="u" fill="rgb(0, 0, 0)" stroke="rgba(0, 0, 0, 0)" style="font-family: sans-serif; font-size: 18px;"><tspan class="u" x="240" dy="0em">(1.5, 2)</tspan></text><text x="600" y="778" class="u" fill="rgb(0, 0, 0)" stroke="rgba(0, 0, 0, 0)" style="font-family: sans-serif; font-size: 18px;" transform="translate(0 18.2499)"><tspan class="u" x="600" dy="0em">(4.5, 0.5)</tspan></text><text x="270" y="418" class="u" fill="rgb(0, 0, 0)" stroke="rgba(0, 0, 0, 0)" style="font-family: sans-serif; font-size: 18px;" transform="translate(15 18.25)"><tspan class="u" x="270" dy="0em">(1.75, 3.5)</tspan></text><text x="480" y="118" class="u" fill="rgb(0, 0, 0)" stroke="rgba(0, 0, 0, 0)" style="font-family: sans-serif; font-size: 18px;"><tspan class="u" x="480" dy="0em">(3.5, 6)</tspan></text><text x="420" y="643" class="u" fill="rgb(0, 0, 0)" stroke="rgba(0, 0, 0, 0)" style="font-family: sans-serif; font-size: 18px;"><tspan class="u" x="420" dy="0em">(3, 1.525)</tspan></text><text x="600" y="658" class="u" fill="rgb(0, 0, 0)" stroke="rgba(0, 0, 0, 0)" style="font-family: sans-serif; font-size: 18px;" transform="translate(0 18.2499)"><tspan class="u" x="600" dy="0em">(4.5, 1.5)</tspan></text><text x="600" y="568" class="u" fill="rgb(0, 0, 0)" stroke="rgba(0, 0, 0, 0)" style="font-family: sans-serif; font-size: 18px;" transform="translate(0 18.25)"><tspan class="u" x="600" dy="0em">(4.5, 2.25)</tspan></text><text x="555" y="358" class="u" fill="rgb(0, 0, 0)" stroke="rgba(0, 0, 0, 0)" style="font-family: sans-serif; font-size: 18px;"><tspan class="u" x="555" dy="0em">(4.20, 4)</tspan></text><text x="720" y="523" class="u" fill="rgb(0, 0, 0)" stroke="rgba(0, 0, 0, 0)" style="font-family: sans-serif; font-size: 18px;" transform="translate(14.9999 18.25)"><tspan class="u" x="720" dy="0em">(5.5, 2.6)</tspan></text><text x="780" y="598" class="u" fill="rgb(0, 0, 0)" stroke="rgba(0, 0, 0, 0)" style="font-family: sans-serif; font-size: 18px;"><tspan class="u" x="780" dy="0em">(6, 2)</tspan></text><text x="435" y="508" class="u" fill="rgb(0, 0, 0)" stroke="rgba(0, 0, 0, 0)" style="font-family: sans-serif; font-size: 18px;"><tspan class="u" x="435" dy="0em">(3.10, 2.75)</tspan></text><text x="750" y="268" class="u" fill="rgb(0, 0, 0)" stroke="rgba(0, 0, 0, 0)" style="font-family: sans-serif; font-size: 18px;"><tspan class="u" x="750" dy="0em">(5.75, 4.75)</tspan></text><text x="750" y="178" class="u" fill="rgb(0, 0, 0)" stroke="rgba(0, 0, 0, 0)" style="font-family: sans-serif; font-size: 18px;" transform="translate(-30 -11.75)"><tspan class="u" x="750" dy="0em">(5.75, 5.5)</tspan></text><text x="960" y="283" class="u" fill="rgb(0, 0, 0)" stroke="rgba(0, 0, 0, 0)" style="font-family: sans-serif; font-size: 18px;" transform="translate(-30.0001 18.25)"><tspan class="u" x="960" dy="0em">(7.5, 4.60)</tspan></text><text x="960" y="478" class="u" fill="rgb(0, 0, 0)" stroke="rgba(0, 0, 0, 0)" style="font-family: sans-serif; font-size: 18px;"><tspan class="u" x="960" dy="0em">(7.5, 3)</tspan></text><text x="930" y="628" class="u" fill="rgb(0, 0, 0)" stroke="rgba(0, 0, 0, 0)" style="font-family: sans-serif; font-size: 18px;" transform="translate(-30.0001 33.2499)"><tspan class="u" x="930" dy="0em">(7.25, 1.75)</tspan></text><text x="810" y="523" class="u" fill="rgb(0, 0, 0)" stroke="rgba(0, 0, 0, 0)" style="font-family: sans-serif; font-size: 18px;" transform="translate(-45 -45) translate(29.9999 18.25)"><tspan class="u" x="810" dy="0em">(6.25, 2.10)</tspan></text><text x="780" y="373" class="u" fill="rgb(0, 0, 0)" stroke="rgba(0, 0, 0, 0)" style="font-family: sans-serif; font-size: 18px;"><tspan class="u" x="780" dy="0em">(6, 3.8)</tspan></text><text x="375" y="373" class="u" fill="rgb(0, 0, 0)" stroke="rgba(0, 0, 0, 0)" style="font-family: sans-serif; font-size: 18px;" transform="translate(15 18.25)"><tspan class="u" x="375" dy="0em">(2.6,3.8)</tspan></text><text x="840" y="388" class="u" fill="rgb(0, 0, 0)" stroke="rgba(0, 0, 0, 0)" style="font-family: sans-serif; font-size: 18px;"><tspan class="u" x="840" dy="0em">(6.5, 3.75)</tspan></text><text x="1050" y="778" class="u" fill="rgb(0, 0, 0)" stroke="rgba(0, 0, 0, 0)" style="font-family: sans-serif; font-size: 18px;" transform="translate(-45 18.2499)"><tspan class="u" x="1050" dy="0em">(8.25, 0.5)</tspan></text><text x="1050" y="448" class="u" fill="rgb(0, 0, 0)" stroke="rgba(0, 0, 0, 0)" style="font-family: sans-serif; font-size: 18px;" transform="translate(-15 0) translate(-15 -11.75)"><tspan class="u" x="1050" dy="0em">(8.25, 3.25)</tspan></text><text x="1050" y="358" class="u" fill="rgb(0, 0, 0)" stroke="rgba(0, 0, 0, 0)" style="font-family: sans-serif; font-size: 18px;" transform="translate(0 18.25)"><tspan class="u" x="1050" dy="0em">(8.25, 4)</tspan></text><text x="1440" y="718" class="u" fill="rgb(0, 0, 0)" stroke="rgba(0, 0, 0, 0)" style="font-family: sans-serif; font-size: 18px;" transform="translate(-0.00012207 18.25)"><tspan class="u" x="1440" dy="0em">(11.5, 1)</tspan></text><text x="1440" y="358" class="u" fill="rgb(0, 0, 0)" stroke="rgba(0, 0, 0, 0)" style="font-family: sans-serif; font-size: 18px;"><tspan class="u" x="1440" dy="0em">(11.5, 4)</tspan></text><text x="1440" y="178" class="u" fill="rgb(0, 0, 0)" stroke="rgba(0, 0, 0, 0)" style="font-family: sans-serif; font-size: 18px;"><tspan class="u" x="1440" dy="0em">(11.5, 5.5)</tspan></text><text x="1200" y="118" class="u" fill="rgb(0, 0, 0)" stroke="rgba(0, 0, 0, 0)" style="font-family: sans-serif; font-size: 18px;"><tspan class="u" x="1200" dy="0em">(9.5, 6)</tspan></text><text x="1545" y="358" class="u" fill="rgb(0, 0, 0)" stroke="rgba(0, 0, 0, 0)" style="font-family: sans-serif; font-size: 18px;"><tspan class="u" x="1545" dy="0em">(12.6, 4)</tspan></text><text x="1200" y="448" class="u" fill="rgb(0, 0, 0)" stroke="rgba(0, 0, 0, 0)" style="font-family: sans-serif; font-size: 18px;" transform="translate(-30 18.25)"><tspan class="u" x="1200" dy="0em">(9.5, 3.25)</tspan></text><text x="1245" y="583" class="u" fill="rgb(0, 0, 0)" stroke="rgba(0, 0, 0, 0)" style="font-family: sans-serif; font-size: 18px;" transform="translate(-105 18.2499)"><tspan class="u" x="1245" dy="0em">(9.75, 2.15)</tspan></text><text x="1245" y="283" class="u" fill="rgb(0, 0, 0)" stroke="rgba(0, 0, 0, 0)" style="font-family: sans-serif; font-size: 18px;"><tspan class="u" x="1245" dy="0em">(9.75, 4.6)</tspan></text><text x="1425" y="493" class="u" fill="rgb(0, 0, 0)" stroke="rgba(0, 0, 0, 0)" style="font-family: sans-serif; font-size: 18px;"><tspan class="u" x="1425" dy="0em">(11.40, 2.8)</tspan></text><text x="1350" y="448" class="u" fill="rgb(0, 0, 0)" stroke="rgba(0, 0, 0, 0)" style="font-family: sans-serif; font-size: 18px;" transform="translate(15 3.25)"><tspan class="u" x="1350" dy="0em">(10.75, 3.25)</tspan></text><text x="1335" y="298" class="u" fill="rgb(0, 0, 0)" stroke="rgba(0, 0, 0, 0)" style="font-family: sans-serif; font-size: 18px;"><tspan class="u" x="1335" dy="0em">(10.60, 4.5)</tspan></text><text x="1305" y="613" class="u" fill="rgb(0, 0, 0)" stroke="rgba(0, 0, 0, 0)" style="font-family: sans-serif; font-size: 18px;" transform="translate(0 18.25)"><tspan class="u" x="1305" dy="0em">(10.40, 1.8)</tspan></text><path d="M 1350 450" class="u" stroke="rgb(41, 173, 255)" style="fill: rgba(0, 0, 0, 0); stroke-width: 4;"></path><path d="M 1350 855 L 1350 825" class="u" stroke="rgb(41, 173, 255)" style="fill: rgba(0, 0, 0, 0); stroke-width: 4;"></path><path d="M 1335 300" class="u" stroke="rgb(41, 173, 255)" style="fill: rgba(0, 0, 0, 0); stroke-width: 4;"></path><path d="M 1335 855 L 1335 825" class="u" stroke="rgb(41, 173, 255)" style="fill: rgba(0, 0, 0, 0); stroke-width: 4;"></path><path d="M 1275 450" class="u" stroke="rgb(41, 173, 255)" style="fill: rgba(0, 0, 0, 0); stroke-width: 4;"></path><text x="1275" y="448" class="u" fill="rgb(0, 0, 0)" stroke="rgba(0, 0, 0, 0)" style="font-family: sans-serif; font-size: 18px;" transform="translate(-60 -60) translate(14.9999 48.25)"><tspan class="u" x="1275" dy="0em">(10.10, 3.25)</tspan></text><text x="1125" y="448" class="u" fill="rgb(0, 0, 0)" stroke="rgba(0, 0, 0, 0)" style="font-family: sans-serif; font-size: 18px;" transform="translate(0 0) translate(0 -15) translate(0 18.25)"><tspan class="u" x="1125" dy="0em">(8.8, 3.25)</tspan></text><path d="M 270 270" class="u" stroke="rgb(0, 228, 54)" style="fill: rgba(0, 0, 0, 0); stroke-width: 6;"></path><text x="255" y="313" class="u" fill="rgb(0, 228, 54)" stroke="rgba(0, 0, 0, 0)" style="font-family: sans-serif; font-size: 48px;"><tspan class="u" x="255" dy="0em">1</tspan></text><text x="480" y="178" class="u" fill="rgb(0, 228, 54)" stroke="rgba(0, 0, 0, 0)" style="font-family: sans-serif; font-size: 48px;"><tspan class="u" x="480" dy="0em">2</tspan></text><text x="450" y="433" class="u" fill="rgb(0, 228, 54)" stroke="rgba(0, 0, 0, 0)" style="font-family: sans-serif; font-size: 48px;"><tspan class="u" x="450" dy="0em">3</tspan></text><text x="1350" y="388" class="u" fill="rgb(0, 228, 54)" stroke="rgba(0, 0, 0, 0)" style="font-family: sans-serif; font-size: 48px;"><tspan class="u" x="1350" dy="0em">4</tspan></text><text x="1260" y="493" class="u" fill="rgb(0, 228, 54)" stroke="rgba(0, 0, 0, 0)" style="font-family: sans-serif; font-size: 48px;" transform="translate(-15 30.3333)"><tspan class="u" x="1260" dy="0em">5</tspan></text><text x="645" y="418" class="u" fill="rgb(0, 228, 54)" stroke="rgba(0, 0, 0, 0)" style="font-family: sans-serif; font-size: 48px; cursor: text;" transform="translate(-15.0001 30.3333)"><tspan class="u" x="645" dy="0em">6</tspan></text></g></svg>